<svg className="logo" width="auto" height="auto" viewBox="0 0 136 25" xmlns="http://www.w3.org/2000/svg">
  <path className="logo" fill-rule="evenodd" clip-rule="evenodd" d="M132.784 4.97846C132.784 4.97846 129.924 5.04924 127.799 5.04924H121.79C119.233 5.04924 118.337 5.65854 118.337 7.65571C118.337 9.51736 119.2 9.99126 121.425 10.1605L128.829 10.736C133.875 11.1422 136 12.9362 136 17.3705C136 21.9402 133.842 24.4451 128.032 24.4451H113.515C114.94 23.4199 115.73 21.9053 116.022 19.9431H127.999C130.522 19.9431 131.418 19.3 131.418 17.3367C131.418 15.441 130.555 14.9333 128.331 14.7642L120.927 14.1887C115.814 13.7825 113.789 12.09 113.789 7.62186C113.789 3.05219 115.947 0.547267 121.724 0.547267H127.799C128.99 0.547267 131.859 0.547267 132.649 0.547144C131.731 0.54739 132.58 0.549237 132.827 0.548621C133.34 0.564993 133.629 0.864476 133.629 1.38799V4.13712C133.629 4.67565 133.325 4.97846 132.784 4.97846ZM132.792 0.547144C132.758 0.547144 132.708 0.547144 132.649 0.547144C132.693 0.547144 132.74 0.547144 132.792 0.547144ZM132.827 0.548621C132.816 0.548252 132.805 0.547267 132.792 0.547144C132.926 0.548006 132.909 0.548498 132.827 0.548621ZM111.414 4.97846C111.414 4.97846 110.969 5.04924 108.844 5.04924H100.42C97.8637 5.04924 96.9672 5.65854 96.9672 7.65571C96.9672 9.51736 97.8305 9.99126 100.055 10.1605L107.459 10.736C112.505 11.1422 114.63 12.9362 114.63 17.3705C114.63 21.9402 112.472 24.4451 106.662 24.4451H88.0479V24.4439C87.923 24.4424 87.8119 24.4232 87.7135 24.3898C89.3 23.2116 90.6389 21.6956 91.6349 19.9431H106.629C109.152 19.9431 110.048 19.3 110.048 17.3367C110.048 15.441 109.185 14.9333 106.961 14.7642L99.5568 14.1887C94.4439 13.7825 92.4187 12.09 92.4187 7.62186C92.4187 3.05219 94.5767 0.547267 100.354 0.547267H108.844C109.988 0.547267 110.753 0.547267 111.253 0.547144C110.379 0.54739 111.213 0.549237 111.458 0.548621C111.971 0.564993 112.259 0.864476 112.259 1.38799V4.13712C112.259 4.67565 111.955 4.97846 111.414 4.97846ZM111.458 0.548621C111.446 0.548252 111.435 0.547267 111.423 0.547144C111.556 0.548006 111.539 0.548498 111.458 0.548621ZM75.9251 8.24852C76.9616 9.07065 77.9581 9.92061 78.8718 10.7346C79.6834 9.84404 80.5732 8.91051 81.5061 7.8902C82.3646 8.4952 83.3099 9.03607 83.3099 9.03607C83.3099 9.03607 81.9734 10.4703 80.4475 12.1759C82.3848 13.993 83.67 15.3642 83.67 15.3642C83.67 15.3642 82.2111 16.8173 82.1561 16.8517C81.5759 16.1534 80.36 14.9717 79.0525 13.7547C77.8974 15.0809 76.829 16.364 76.3352 16.999C76.2765 17.0805 74.6517 15.7642 74.6517 15.7642C74.6517 15.7642 75.7664 14.2864 77.4765 12.3076C75.7551 10.7462 74.2545 9.43771 74.2545 9.43771C74.2545 9.43771 75.1302 8.81598 75.9251 8.24852ZM79.074 25C74.8935 25 71.2005 22.985 68.9765 19.7365C70.0315 17.9357 70.7141 15.8612 71.5482 13.967C72.1966 17.6056 75.3181 20.3653 79.074 20.3653C83.2998 20.3653 86.7255 16.8727 86.7255 12.5643C86.7255 8.57336 83.7854 5.28471 79.9935 4.82127C79.8463 4.81807 79.734 4.79838 79.6481 4.76797C79.5495 4.78914 79.4419 4.80059 79.3242 4.80059C65.3874 4.80059 73.8439 24.4451 57.5922 24.4451C47.899 24.4451 43.7387 24.4451 43.7387 24.4451C43.2075 24.4451 42.9087 24.1404 42.9087 23.5988V9.24569L42.9234 8.0405C42.9234 7.49889 43.2222 7.19424 43.7533 7.19424H46.7083C47.2395 7.19424 47.5383 7.49889 47.5383 8.0405L47.4904 10.5667H56.687C58.4135 10.5667 59.7084 10.1267 59.7084 8.16347V7.62186C59.7084 5.59084 58.4135 5.04924 56.2886 5.04924H47.9456V5.04677H36.1476V1.39353C36.1476 0.85192 36.4464 0.547267 36.9777 0.547267H56.5874C62.1984 0.547267 64.4229 2.78139 64.4893 7.14796V7.48646C64.4893 9.28139 63.8716 10.8439 62.7831 12.0238C63.6601 12.3523 64.2842 12.7611 64.1993 13.0958C64.0271 13.7746 63.1633 15.7532 62.1921 16.2605C62.1921 15.2803 60.3106 14.3432 57.6651 14.3432C57.6057 14.3432 57.55 14.3412 57.4961 14.3383C57.2851 14.3512 57.0708 14.358 56.853 14.358H47.4904V19.977C47.4904 19.977 49.2371 19.8301 57.4714 19.8301C70.2582 19.8301 62.2223 0 79.0827 0C79.1157 0 79.1499 0.00701625 79.1849 0.0192024C85.9301 0.0800098 91.38 5.67282 91.38 12.5643C91.38 19.4935 85.8705 25 79.074 25ZM36.8715 7.19424H39.8265C40.3577 7.19424 40.6565 7.49889 40.6565 8.0405V23.5988C40.6565 24.1404 40.3577 24.4451 39.8265 24.4451H36.8383C36.4068 24.4451 36.0748 24.2758 35.8092 23.9373L22.9272 7.72341V17.4442C22.9272 17.9858 22.6284 18.2905 22.0971 18.2905H19.1423C18.6111 18.2905 18.3123 17.9858 18.3123 17.4442V1.39353C18.3123 0.85192 18.6111 0.547267 19.1423 0.547267H22.1303C22.5619 0.547267 22.894 0.716519 23.1596 1.05502L36.0416 17.3705V8.0405C36.0416 7.49889 36.3404 7.19424 36.8715 7.19424ZM15.3689 5.04924H4.58172V10.2621H11.4965C12.0277 10.2621 12.3265 10.5667 12.3265 11.1083V13.5794C12.3265 14.121 12.0277 14.4257 11.4965 14.4257H4.58172V19.9431H21.9134C22.4446 19.9431 22.7434 20.2478 22.7434 20.7893V23.5988C22.7434 24.1404 22.4446 24.4451 21.9134 24.4451H0.830043C0.298815 24.4451 0 24.1404 0 23.5988V1.39353C0 0.85192 0.298815 0.547267 0.830043 0.547267H15.3689C15.9001 0.547267 16.1989 0.85192 16.1989 1.39353V4.20298C16.1989 4.74458 15.9001 5.04924 15.3689 5.04924Z" />
</svg>